<?xml version="1.0" encoding="UTF-8" standalone="no"?>
<!-- Created with Inkscape (http://www.inkscape.org/) -->

<svg
   xmlns:dc="http://purl.org/dc/elements/1.1/"
   xmlns:cc="http://creativecommons.org/ns#"
   xmlns:rdf="http://www.w3.org/1999/02/22-rdf-syntax-ns#"
   xmlns:svg="http://www.w3.org/2000/svg"
   xmlns="http://www.w3.org/2000/svg"
   xmlns:xlink="http://www.w3.org/1999/xlink"
   xmlns:sodipodi="http://sodipodi.sourceforge.net/DTD/sodipodi-0.dtd"
   xmlns:inkscape="http://www.inkscape.org/namespaces/inkscape"
   version="1.0"
   width="48"
   height="48"
   id="svg2"
   inkscape:version="0.48.2 r9819"
   sodipodi:docname="pingus-icon2.svg"
   inkscape:export-filename="/home/ingo/projects/pingus/git/pingus/data/images/svg/pingus-icon2.png"
   inkscape:export-xdpi="94.298172"
   inkscape:export-ydpi="94.298172">
  <metadata
     id="metadata19">
    <rdf:RDF>
      <cc:Work
         rdf:about="">
        <dc:format>image/svg+xml</dc:format>
        <dc:type
           rdf:resource="http://purl.org/dc/dcmitype/StillImage" />
        <dc:title></dc:title>
      </cc:Work>
    </rdf:RDF>
  </metadata>
  <sodipodi:namedview
     pagecolor="#ffffff"
     bordercolor="#666666"
     borderopacity="1"
     objecttolerance="10"
     gridtolerance="10"
     guidetolerance="10"
     inkscape:pageopacity="0"
     inkscape:pageshadow="2"
     inkscape:window-width="1680"
     inkscape:window-height="972"
     id="namedview17"
     showgrid="false"
     showguides="true"
     inkscape:guide-bbox="true"
     inkscape:zoom="8.5818182"
     inkscape:cx="21.454693"
     inkscape:cy="25.955181"
     inkscape:window-x="1280"
     inkscape:window-y="26"
     inkscape:window-maximized="1"
     inkscape:current-layer="svg2" />
  <defs
     id="defs4">
    <linearGradient
       id="linearGradient3878">
      <stop
         style="stop-color:#666666;stop-opacity:1;"
         offset="0"
         id="stop3880" />
      <stop
         style="stop-color:#ffffff;stop-opacity:1"
         offset="1"
         id="stop3882" />
    </linearGradient>
    <linearGradient
       inkscape:collect="always"
       id="linearGradient3861">
      <stop
         style="stop-color:#b3b3b3;stop-opacity:1;"
         offset="0"
         id="stop3863" />
      <stop
         style="stop-color:#b3b3b3;stop-opacity:0;"
         offset="1"
         id="stop3865" />
    </linearGradient>
    <radialGradient
       inkscape:collect="always"
       xlink:href="#linearGradient3861"
       id="radialGradient3867"
       cx="24.059607"
       cy="4.3273692"
       fx="24.059607"
       fy="4.3273692"
       r="19.610228"
       gradientUnits="userSpaceOnUse"
       gradientTransform="matrix(-3.0797891,0,0,-1.5238021,98.158117,8.6490236)" />
    <radialGradient
       inkscape:collect="always"
       xlink:href="#linearGradient3878"
       id="radialGradient3884"
       cx="23.680138"
       cy="45.230938"
       fx="23.680138"
       fy="45.230938"
       r="15.619493"
       gradientTransform="matrix(2.8138315,0,0,1.2956303,-43.402463,-10.597618)"
       gradientUnits="userSpaceOnUse" />
  </defs>
  <rect
     style="fill:#1a1a1a;fill-opacity:1;stroke:none"
     id="rect3837"
     width="47.676537"
     height="47.676537"
     x="0.22133948"
     y="-0.062668122"
     ry="10.975894" />
  <rect
     ry="10.08417"
     y="1.8740443"
     x="2.1580517"
     height="43.803112"
     width="43.803112"
     id="rect3839"
     style="fill:url(#radialGradient3867);fill-opacity:1;stroke:none" />
  <path
     inkscape:connector-curvature="0"
     style="fill:none;stroke:#ff0000;stroke-width:10;stroke-linecap:butt;stroke-linejoin:miter;stroke-miterlimit:4;stroke-opacity:1;stroke-dasharray:none"
     id="path3178"
     d="" />
  <path
     inkscape:connector-curvature="0"
     style="fill:url(#radialGradient3884);fill-opacity:1;fill-rule:evenodd;stroke:none;stroke-opacity:1"
     id="path3395"
     d="M 23.180066,4.0253574 C 21.53543,4.8846683 19.890795,5.7439791 18.246159,6.60329 c -0.07832,2.7081337 -0.156635,5.416267 -0.234952,8.124401 -1.42132,4.211226 -6.468061,7.104117 -9.7020914,10.656176 2.3464494,0.119548 4.6928984,0.239096 7.0393474,0.358644 -0.15663,2.21338 -0.31326,4.42676 -0.46989,6.64014 -1.461899,-0.05208 -2.923797,-0.104165 -4.385696,-0.156247 0.261052,2.187339 0.522105,4.374678 0.783157,6.562017 2.166743,1.249909 4.333485,2.499818 6.500228,3.749727 2.89769,-0.07812 5.795379,-0.156237 8.693069,-0.234356 0.730949,-0.416635 1.461898,-0.833269 2.192847,-1.249904 1.096424,0.364557 2.192848,0.729114 3.289272,1.093671 2.532217,-2.31754 5.064434,-4.635079 7.596651,-6.952619 -1.592426,-1.171791 -3.184851,-2.343581 -4.777277,-3.515372 -0.417685,-2.083179 -0.835369,-4.166358 -1.253054,-6.249537 1.044212,-0.364557 2.088423,-0.729115 3.132635,-1.093672 -0.313262,-0.650993 -0.626525,-1.301987 -0.939787,-1.95298 -2.453902,-1.614464 -4.907805,-3.228928 -7.361707,-4.843392 0.23495,-0.937432 0.469899,-1.874864 0.704849,-2.812296 1.775163,-0.338516 3.550326,-0.677033 5.325489,-1.015549 0.600422,-0.598916 1.200844,-1.197831 1.801266,-1.796747 C 34.24872,11.056084 32.316924,10.196773 30.385129,9.3374624 29.758602,8.0094344 29.132075,6.6814064 28.505548,5.3533784 26.730387,4.9107047 24.955227,4.4680311 23.180066,4.0253574 z"
     sodipodi:nodetypes="cccccccccccccccccccccccc"
     inkscape:export-filename="/home/ingo/projects/pingus/git/pingus/data/images/svg/path3190.png"
     inkscape:export-xdpi="94.298172"
     inkscape:export-ydpi="94.298172" />
  <path
     inkscape:connector-curvature="0"
     style="fill:none;stroke:#666666;stroke-width:1.89999998000000003;stroke-linecap:round;stroke-linejoin:round;stroke-miterlimit:4;stroke-opacity:1;stroke-dasharray:none"
     id="path2396"
     d="m 17.945582,24.659279 c -1.121623,0.39127 -4.246142,1.486813 -6.409251,1.721576 -2.1631225,0.234749 -3.8632232,-0.74274 -2.3233563,-2.191094 2.1631293,-2.034589 6.2490173,-4.069163 8.7326073,-8.216583 1.097429,-1.832661 -0.614225,-3.40402 -0.400585,-6.0255087 0.213641,-2.6214818 1.59868,-5.4124553 5.287628,-5.7124823 3.688948,-0.300027 7.487197,1.2702873 7.771204,5.3994767"
     inkscape:export-filename="/home/ingo/projects/pingus/git/pingus/data/images/svg/path3190.png"
     inkscape:export-xdpi="94.298172"
     inkscape:export-ydpi="94.298172" />
  <path
     inkscape:connector-curvature="0"
     style="fill:none;stroke:#666666;stroke-width:1.89999998000000003;stroke-linecap:round;stroke-linejoin:round;stroke-miterlimit:4;stroke-opacity:1;stroke-dasharray:none"
     id="path3168"
     d="m 15.301758,26.928617 c -0.480688,6.182015 -0.320454,9.938179 -4.726823,11.111966 4.166011,3.756157 9.533756,6.57327 17.54531,3.130132"
     inkscape:export-filename="/home/ingo/projects/pingus/git/pingus/data/images/svg/path3190.png"
     inkscape:export-xdpi="94.298172"
     inkscape:export-ydpi="94.298172" />
  <path
     inkscape:connector-curvature="0"
     style="fill:none;stroke:#666666;stroke-width:1.89999998000000003;stroke-linecap:round;stroke-linejoin:round;stroke-miterlimit:4;stroke-opacity:1;stroke-dasharray:none"
     id="path3172"
     d="m 27.879901,16.364433 c -0.160233,2.81712 8.091658,5.869003 9.133165,7.434058 1.041499,1.565063 -2.884162,1.252058 -2.884162,1.252058"
     inkscape:export-filename="/home/ingo/projects/pingus/git/pingus/data/images/svg/path3190.png"
     inkscape:export-xdpi="94.298172"
     inkscape:export-ydpi="94.298172" />
  <path
     inkscape:connector-curvature="0"
     style="fill:#666666;fill-opacity:1;fill-rule:nonzero;stroke:none;stroke-opacity:1"
     id="path3180"
     d="m 28.718903,9.4101628 c 3.76e-4,1.1055872 -0.771147,2.0020662 -1.722978,2.0020662 -0.951832,0 -1.723343,-0.896479 -1.722979,-2.0020662 -3.76e-4,-1.1055875 0.771147,-2.0020656 1.722979,-2.0020656 0.951831,0 1.723342,0.8964781 1.722978,2.0020656 z"
     inkscape:export-filename="/home/ingo/projects/pingus/git/pingus/data/images/svg/path3190.png"
     inkscape:export-xdpi="94.298172"
     inkscape:export-ydpi="94.298172" />
  <path
     inkscape:connector-curvature="0"
     style="fill:none;stroke:#666666;stroke-width:1.89999998000000003;stroke-linecap:round;stroke-linejoin:round;stroke-miterlimit:4;stroke-opacity:1;stroke-dasharray:none"
     id="path3182"
     d="m 30.683946,9.8694196 c -1.526374,0.074554 -2.804045,1.2520504 -3.605193,2.7388634 -0.801169,1.486813 0.591611,2.275367 0.961375,2.425836 0.961397,0.391291 7.771211,-1.252029 8.011562,-2.582342 0.240337,-1.330307 -5.291807,-2.5860735 -5.367744,-2.5823574 z"
     inkscape:export-filename="/home/ingo/projects/pingus/git/pingus/data/images/svg/path3190.png"
     inkscape:export-xdpi="94.298172"
     inkscape:export-ydpi="94.298172" />
  <path
     inkscape:connector-curvature="0"
     style="fill:none;stroke:#666666;stroke-width:1.89999998000000003;stroke-linecap:round;stroke-linejoin:round;stroke-miterlimit:4;stroke-opacity:1;stroke-dasharray:none"
     id="path3186"
     d="m 29.642446,41.248965 c 3.044381,2.42585 9.053054,-4.851702 9.453632,-6.025509 0.400578,-1.173787 -2.884161,-3.8344 -4.887043,-3.286632 -2.002895,0.547776 -5.848446,8.13834 -4.566589,9.312141 z"
     inkscape:export-filename="/home/ingo/projects/pingus/git/pingus/data/images/svg/path3190.png"
     inkscape:export-xdpi="94.298172"
     inkscape:export-ydpi="94.298172" />
  <path
     inkscape:connector-curvature="0"
     style="fill:none;stroke:#666666;stroke-width:1.89999998000000003;stroke-linecap:round;stroke-linejoin:round;stroke-miterlimit:4;stroke-opacity:1;stroke-dasharray:none"
     id="path3188"
     d="M 11.456214,36.475513 C 9.4293112,33.156453 10.776142,31.067489 13.53922,32.4846"
     inkscape:export-filename="/home/ingo/projects/pingus/git/pingus/data/images/svg/path3190.png"
     inkscape:export-xdpi="94.298172"
     inkscape:export-ydpi="94.298172" />
  <path
     inkscape:connector-curvature="0"
     style="fill:none;stroke:#666666;stroke-width:1.89999998000000003;stroke-linecap:round;stroke-linejoin:round;stroke-miterlimit:4;stroke-opacity:1;stroke-dasharray:none"
     id="path3190"
     d="m 27.639551,40.075164 c -2.990441,-0.834838 -4.202293,-4.568951 -4.96716,-8.764365 -0.786539,-4.314303 1.201726,-9.390383 4.486472,-9.781652 3.284739,-0.391262 6.970041,3.677908 7.370633,8.999121"
     inkscape:export-xdpi="94.298172"
     inkscape:export-ydpi="94.298172" />
</svg>
