<?xml version="1.0" encoding="UTF-8" standalone="no"?>
<!DOCTYPE svg PUBLIC "-//W3C//DTD SVG 1.1//EN" "http://www.w3.org/Graphics/SVG/1.1/DTD/svg11.dtd" [
     <!ENTITY stroke_color "#666666">
     <!ENTITY fill_color "#FFFFFF">
 ]>
<!-- Created with Inkscape (http://www.inkscape.org/) -->
<svg
   xmlns:svg="http://www.w3.org/2000/svg"
   xmlns="http://www.w3.org/2000/svg"
   version="1.0"
   width="55"
   height="55"
   id="svg2">
  <defs
     id="defs4" />
  <path
     d="M 9.1405951,35.363999 C 3.4396529,41.779475 4.2539112,38.474575 4.0258736,40.354974 C 3.7978359,42.235372 16.451105,54.287138 19.895987,52.766598 C 24.121827,50.901353 19.667949,49.116413 19.553931,48.452743 C 19.439912,47.789073 19.742715,46.855335 21.567017,45.859829"
     id="path3254"
     style="fill:&fill_color;;fill-opacity:1;fill-rule:evenodd;stroke:&stroke_color;;stroke-width:3.5;stroke-linecap:round;stroke-linejoin:round;stroke-miterlimit:4;stroke-dasharray:none;stroke-opacity:1" />
  <path
     d="M 38.825338,12.072751 C 43.097735,8.143573 47.236077,1.6829462 48.315766,5.1499442 C 49.395457,8.6169419 46.635129,13.129644 46.635129,13.129644"
     id="path3258"
     style="fill:&fill_color;;fill-opacity:1;fill-rule:evenodd;stroke:&stroke_color;;stroke-width:3.5;stroke-linecap:round;stroke-linejoin:round;stroke-miterlimit:4;stroke-dasharray:none;stroke-opacity:1" />
  <path
     d="M 28.746151,2.596 L 20.260172,5.0552821 L 15.463749,17.720585 L 10.913295,23.253969 L 9.4374732,34.689632 L 9.1915028,43.174156 L 6.9777691,48.461612 L 23.949728,45.264545 L 33.296604,48.338648 L 42.766465,50.429038 L 45.595124,49.691252 L 52.790568,31.351014 L 46.45602,29.156247 L 43.42807,23.235382 L 38.012053,21.409508 L 38.258022,18.827262 L 49.653636,16.613908 L 49.899607,14.154626 L 39.322878,11.818307 L 37.724071,5.4241744 L 28.746151,2.596 z"
     id="path3260"
     style="fill:&fill_color;;fill-opacity:1;fill-rule:evenodd;stroke:none;stroke-width:3.5;stroke-linecap:butt;stroke-linejoin:miter;stroke-miterlimit:4;stroke-dasharray:none;stroke-opacity:1" />
  <path
     d="M 39.199895,10.465703 C 38.830939,5.0552825 35.506848,2.1295381 27.555819,2.4524097 C 19.60479,2.7752812 16.202976,8.4470846 16.003891,15.55534 C 15.793088,23.082016 11.21485,22.746264 9.8495177,28.922456 C 8.2307288,36.24518 10.148805,38.53713 9.9905585,41.919068 C 9.8575353,44.761958 6.8256483,48.707332 6.8256483,48.707332 C 6.8256483,48.707332 15.778666,46.691588 23.757927,45.392133 C 29.221411,44.502383 43.027572,53.458133 45.625962,49.759242 C 48.602842,45.521557 52.007462,38.969507 52.277659,31.83531 C 52.347905,29.980548 48.469177,30.824345 47.272179,32.658563 C 46.013332,34.587553 44.297008,36.370851 42.624808,39.633931"
     id="path2472"
     style="fill:none;fill-opacity:1;fill-rule:evenodd;stroke:&stroke_color;;stroke-width:3.5;stroke-linecap:round;stroke-linejoin:round;stroke-miterlimit:4;stroke-dasharray:none;stroke-opacity:1" />
  <path
     d="M 33.542576,15.999088 C 33.296605,21.716919 47.193933,17.966513 49.407667,16.613909 C 51.621402,15.261303 50.022593,14.769447 47.931844,13.908698 C 45.841096,13.04795 33.788546,10.281256 33.542576,15.999088 z"
     id="path3246"
     style="fill:none;fill-opacity:1;fill-rule:evenodd;stroke:&stroke_color;;stroke-width:3.5;stroke-linecap:butt;stroke-linejoin:miter;stroke-miterlimit:4;stroke-dasharray:none;stroke-opacity:1" />
  <path
     d="M 46.697325,31.924015 C 46.787375,26.688468 43.608556,21.311641 38.461984,22.02433 C 31.020301,23.054842 30.340512,37.873872 41.536614,39.608198"
     id="path3252"
     style="fill:none;fill-opacity:1;fill-rule:evenodd;stroke:&stroke_color;;stroke-width:3.5;stroke-linecap:round;stroke-linejoin:round;stroke-miterlimit:4;stroke-dasharray:none;stroke-opacity:1" />
  <path
     d="M 21.613009,24.237684 C 18.784349,29.033285 14.356884,30.754782 13.373001,34.320741 C 12.683081,36.821271 21.121068,38.255593 26.163462,33.0911"
     id="path3256"
     style="fill:&fill_color;;fill-opacity:1;fill-rule:evenodd;stroke:&stroke_color;;stroke-width:3.5;stroke-linecap:round;stroke-linejoin:round;stroke-miterlimit:4;stroke-dasharray:none;stroke-opacity:1" />
  <path
     d="M 33.927299,10.176385 C 33.927299,11.701089 32.80761,12.937105 31.426405,12.937105 C 30.045199,12.937105 28.925512,11.701089 28.925512,10.176385 C 28.925512,8.6516802 30.045199,7.4156636 31.426405,7.4156636 C 32.80761,7.4156636 33.927299,8.6516802 33.927299,10.176385 z"
     id="path3280"
     style="opacity:1;fill:&stroke_color;;fill-opacity:1;fill-rule:nonzero;stroke:none;stroke-width:3.5;stroke-linecap:round;stroke-linejoin:round;stroke-miterlimit:4;stroke-dasharray:none;stroke-opacity:1" />
  <path
     d="M 44.42505,18.104619 L 41.831497,22.622421"
     id="path3302"
     style="fill-rule:evenodd;stroke:&stroke_color;;stroke-width:3.5;stroke-linecap:butt;stroke-linejoin:miter;stroke-miterlimit:4;stroke-dasharray:none;stroke-opacity:1" />
</svg>
