/* XPM */
static char *dummy[]={
"32 32 72 2",
"Qt c None",
".e c #020204",
".b c #090b0b",
".G c #0b1214",
".d c #121213",
".a c #171716",
".# c #19191a",
".i c #1c2021",
".O c #1e1e1e",
".f c #272625",
".I c #272727",
".Z c #2a1a06",
".c c #2b2e2e",
".z c #2c2c2e",
".l c #373637",
".j c #39393b",
".D c #39393c",
".H c #3c3c3c",
".F c #414141",
".T c #4f4f4f",
".y c #5a420e",
".P c #5a5a5a",
".J c #5a625e",
".C c #5e5a62",
".5 c #623606",
".E c #656568",
".W c #6e6e6e",
".1 c #724206",
".k c #725a36",
".N c #7a7a7e",
".h c #898786",
".0 c #8e5606",
".Y c #929296",
".6 c #967256",
".U c #969696",
"#. c #9e0202",
".X c #9e6e1e",
".V c #a69e96",
".R c #aaaaae",
"#c c #ba0202",
".K c #bababe",
"#b c #c40a0a",
"## c #c50303",
".L c #cacace",
"#e c #ce1010",
"#f c #ce1616",
".8 c #d23a3a",
".2 c #d27606",
".7 c #da5252",
".m c #da620a",
".M c #dadade",
".B c #e2b26e",
".q c #e6d2a2",
"#d c #ea1f1f",
".S c #eaeaee",
".p c #f3d696",
".Q c #f6f6f6",
".g c #f6fefe",
".n c #f98911",
".r c #fe7206",
".4 c #fe9606",
".s c #fe9a36",
".t c #fea13e",
".A c #fea646",
".9 c #feaa06",
".x c #feaa26",
"#a c #feb606",
".u c #fec67e",
".3 c #feca4e",
".w c #fede86",
".v c #fee6ae",
".o c #feeebe",
"QtQtQtQtQtQtQtQtQtQtQtQtQtQtQtQtQtQtQtQtQtQtQtQtQtQtQtQtQtQtQtQt",
"QtQtQtQtQtQtQtQtQtQtQtQtQtQt.#.a.a.a.#QtQtQtQtQtQtQtQtQtQtQtQtQt",
"QtQtQtQtQtQtQtQtQtQtQtQtQt.#.a.b.a.a.c.dQtQtQtQtQtQtQtQtQtQtQtQt",
"QtQtQtQtQtQtQtQtQtQtQtQt.e.e.e.e.e.e.a.aQtQtQtQtQtQtQtQtQtQtQtQt",
"QtQtQtQtQtQtQtQtQtQtQtQtQt.f.b.g.h.i.a.a.jQtQtQtQt.e.eQtQtQtQtQt",
"QtQtQtQtQtQtQtQtQtQtQtQt.e.c.k.l.h.g.l.a.aQtQtQt.e.e.eQtQtQtQtQt",
"QtQtQtQtQtQtQtQtQtQtQt.m.n.o.p.p.p.q.a.c.aQtQtQt.e.e.eQtQtQtQtQt",
"QtQtQtQtQtQtQtQt.r.s.t.t.u.p.v.w.w.x.y.a.lQtQt.z.e.e.eQtQtQtQtQt",
"QtQtQtQtQtQtQtQt.m.t.t.s.t.t.t.A.A.B.k.a.C.DQt.e.e.e.eQtQtQtQtQt",
"QtQtQtQtQtQtQtQtQtQtQtQt.a.a.a.a.a.a.a.a.e.E.j.e.e.e.eQtQtQtQtQt",
"QtQtQtQtQt.F.f.e.e.e.e.f.f.f.f.f.f.f.f.f.e.e.b.e.e.e.eQtQtQtQtQt",
"QtQtQt.F.l.e.e.e.e.e.e.b.e.G.i.c.G.e.e.e.i.e.e.e.e.eQtQtQtQtQtQt",
"QtQt.H.e.e.e.i.I.e.e.e.b.J.K.L.M.K.N.c.e.l.c.a.e.e.eQtQtQtQtQtQt",
"QtQt.e.e.I.OQtQt.G.e.e.P.M.g.g.g.g.Q.K.J.l.l.c.e.eQtQtQtQtQtQtQt",
"QtQtQtQtQtQtQt.#.a.G.c.R.S.g.g.g.g.g.g.L.T.l.l.e.eQtQtQtQtQtQtQt",
"QtQtQtQtQtQtQt.l.a.e.T.K.S.g.g.g.g.g.g.g.R.i.l.eQtQtQtQtQtQtQtQt",
"QtQtQtQtQtQtQt.l.b.e.E.K.S.g.g.g.g.g.g.g.M.T.a.lQtQtQtQtQtQtQtQt",
"QtQtQtQtQtQtQt.l.e.a.U.K.S.g.g.g.g.g.g.g.g.E.e.lQtQtQtQtQtQtQtQt",
"QtQtQtQtQtQtQt.c.e.l.R.K.M.Q.g.g.g.g.g.g.g.N.e.cQtQtQtQtQtQtQtQt",
"QtQtQtQtQtQtQt.j.e.T.V.R.L.S.Q.g.g.g.g.g.g.N.e.jQtQtQtQtQtQtQtQt",
"QtQtQtQtQtQtQtQt.e.l.V.R.K.L.M.S.S.S.g.Q.S.W.eQtQtQtQtQtQtQtQtQt",
"QtQtQtQtQtQtQtQt.c.b.N.R.R.K.L.L.M.M.M.S.L.c.fQtQtQtQtQtQtQtQtQt",
"QtQtQtQtQtQtQtQt.X.e.c.Y.Y.R.R.K.K.K.K.R.P.ZQtQtQtQtQtQtQtQtQtQt",
"QtQtQtQtQtQtQtQt.x.0.b.i.T.E.N.N.N.N.P.c.1.2QtQtQtQtQtQtQtQtQtQt",
"QtQtQtQtQtQtQtQt.3.4.2.0.1.5.P.V.6.1.5.0.4.4QtQtQtQtQtQtQtQtQtQt",
"QtQt.7.8.8.8.8.8.2.9.4.4.4.n#..8#..n.9.9.9.x.2.8.8.8.8.8QtQtQtQt",
"Qt.7############.9.9.9.9.4#.#####..9#a#a.9.9.9##########.7QtQtQt",
"Qt#b###c#.#.#.#.#.#.#.#.#.#.#.#.#.#.#.#.#.#.#.#.#.#.#.#.#..7QtQt",
"QtQt#d#d#e#c#c#b#b#c#b#f#f#f#f#f#f#f#f#f#f#f#c#c#c#b#c#c#f#d.7Qt",
"QtQtQtQtQt.e.G.J.T.eQtQtQtQtQtQtQtQtQtQtQtQt.G.e.P.C.a.lQtQtQtQt",
"QtQtQtQtQtQt.e.a.eQtQtQtQtQtQtQtQtQtQtQtQtQtQt.b.b.b.cQtQtQtQtQt",
"QtQtQtQtQtQtQtQtQtQtQtQtQtQtQtQtQtQtQtQtQtQtQtQtQtQtQtQtQtQtQtQt"};
