<?xml version="1.0" encoding="UTF-8" standalone="no"?>
<!DOCTYPE svg PUBLIC "-//W3C//DTD SVG 1.1//EN" "http://www.w3.org/Graphics/SVG/1.1/DTD/svg11.dtd" [
     <!ENTITY stroke_color "#666666">
     <!ENTITY fill_color "#FFFFFF">
 ]>
<!-- Created with Inkscape (http://www.inkscape.org/) -->
<svg
   xmlns:svg="http://www.w3.org/2000/svg"
   xmlns="http://www.w3.org/2000/svg"
   version="1.0"
   width="55"
   height="55"
   id="svg2">
  <defs
     id="defs4" />
  <g
     transform="translate(0.6015127,4.9354205e-2)"
     id="g2405">
    <g
       id="g2392">
      <g
         transform="matrix(0.920471,0,0,0.9312402,-192.30861,-273.00958)"
         id="layer1">
        <path
           d="M 237.14455,294.92259 L 230.02546,298.59925 L 229.68645,310.18631 L 215.68739,325.3842 L 225.8444,325.8957 L 225.1664,335.3659 L 218.83832,335.14306 L 219.96833,344.50184 L 229.34745,349.84972 L 241.8906,349.51548 L 245.05464,347.73286 L 249.8007,349.29266 L 260.76184,339.3768 L 253.86875,334.36316 L 252.06073,325.45004 L 256.58078,323.89024 L 255.22477,321.10489 L 244.60263,314.19722 L 245.61965,310.18631 L 253.30375,308.73793 L 255.90278,306.1754 L 247.54067,302.49874 L 244.82864,296.81662 L 237.14455,294.92259 z"
           id="path3395"
           style="fill:&fill_color;;fill-opacity:1;fill-rule:evenodd;stroke:none;stroke-width:0.25pt;stroke-linecap:butt;stroke-linejoin:miter;stroke-opacity:1" />
        <path
           d="M 229.59176,324.35079 C 227.97338,324.90882 223.46504,326.47129 220.34391,326.80611 C 217.22276,327.14091 214.7697,325.74681 216.99156,323.68116 C 220.11272,320.77942 226.00821,317.8777 229.59176,311.96263 C 231.17523,309.34888 228.7055,307.1078 229.01376,303.36902 C 229.32202,299.63025 231.32048,295.64975 236.64323,295.22185 C 241.96598,294.79395 247.44644,297.03354 247.85623,302.92261"
           id="path2396"
           style="fill:none;fill-opacity:0.75;fill-rule:evenodd;stroke:&stroke_color;;stroke-width:3.78035164;stroke-linecap:round;stroke-linejoin:round;stroke-miterlimit:4;stroke-dasharray:none;stroke-opacity:1" />
        <path
           d="M 225.77701,327.58733 C 225.08343,336.40415 225.31463,341.76121 218.95672,343.43527 C 224.96782,348.79232 232.71289,352.8101 244.27269,347.89948"
           id="path3168"
           style="fill:none;fill-opacity:0.75;fill-rule:evenodd;stroke:&stroke_color;;stroke-width:3.78035164;stroke-linecap:round;stroke-linejoin:round;stroke-miterlimit:4;stroke-dasharray:none;stroke-opacity:1" />
        <path
           d="M 243.9259,312.52064 C 243.6947,316.53843 255.60128,320.89104 257.10406,323.12313 C 258.60683,325.35523 252.94253,324.90882 252.94253,324.90882"
           id="path3172"
           style="fill:none;fill-opacity:0.75;fill-rule:evenodd;stroke:&stroke_color;;stroke-width:3.78035164;stroke-linecap:round;stroke-linejoin:round;stroke-miterlimit:4;stroke-dasharray:none;stroke-opacity:1" />
        <path
           d=""
           id="path3178"
           style="opacity:1;fill:none;fill-opacity:1;fill-rule:nonzero;stroke:#ff0000;stroke-width:10.80100346;stroke-linecap:butt;stroke-linejoin:miter;stroke-miterlimit:4;stroke-dasharray:none;stroke-opacity:1" />
        <path
           d="M 417.99737,355.82727 C 418.00027,362.79274 411.84112,368.44077 404.24243,368.44077 C 396.64374,368.44077 390.48459,362.79274 390.48749,355.82727 C 390.48459,348.8618 396.64374,343.21377 404.24243,343.21377 C 411.84112,343.21377 418.00027,348.8618 417.99737,355.82727 z"
           transform="matrix(0.1807402,0,0,0.226373,169.58756,222.05274)"
           id="path3180"
           style="opacity:1;fill:&stroke_color;;fill-opacity:1;fill-rule:nonzero;stroke:none;stroke-width:37.67419052;stroke-linecap:round;stroke-linejoin:round;stroke-miterlimit:4;stroke-dasharray:none;stroke-opacity:1" />
        <path
           d="M 247.97183,303.25742 C 245.76944,303.36375 243.9259,305.0431 242.76993,307.1636 C 241.61393,309.2841 243.62356,310.40874 244.15709,310.62334 C 245.54428,311.1814 255.3701,308.83769 255.7169,306.94039 C 256.06368,305.0431 248.0814,303.25212 247.97183,303.25742 z"
           id="path3182"
           style="fill:none;fill-opacity:0.75;fill-rule:evenodd;stroke:&stroke_color;;stroke-width:3.78035164;stroke-linecap:round;stroke-linejoin:round;stroke-miterlimit:4;stroke-dasharray:none;stroke-opacity:1" />
        <path
           d="M 246.46906,348.01108 C 250.86177,351.47084 259.53163,341.09156 260.10962,339.41747 C 260.68761,337.74341 255.94809,333.94883 253.05815,334.73006 C 250.16819,335.5113 244.61948,346.337 246.46906,348.01108 z"
           id="path3186"
           style="fill:none;fill-opacity:0.75;fill-rule:evenodd;stroke:&stroke_color;;stroke-width:3.78035164;stroke-linecap:round;stroke-linejoin:round;stroke-miterlimit:4;stroke-dasharray:none;stroke-opacity:1" />
        <path
           d="M 220.22831,341.20316 C 217.30371,336.4695 219.24704,333.49021 223.23386,335.5113"
           id="path3188"
           style="fill:none;fill-opacity:0.75;fill-rule:evenodd;stroke:&stroke_color;;stroke-width:3.78035164;stroke-linecap:round;stroke-linejoin:round;stroke-miterlimit:4;stroke-dasharray:none;stroke-opacity:1" />
        <path
           d="M 243.5791,346.337 C 239.26422,345.14635 237.51565,339.82074 236.41203,333.83722 C 235.27714,327.68414 238.14599,320.44461 242.88552,319.88658 C 247.62504,319.32856 252.94253,325.13203 253.52054,332.72117"
           id="path3190"
           style="fill:none;fill-opacity:0.75;fill-rule:evenodd;stroke:&stroke_color;;stroke-width:3.78035164;stroke-linecap:round;stroke-linejoin:round;stroke-miterlimit:4;stroke-dasharray:none;stroke-opacity:1" />
      </g>
    </g>
  </g>
</svg>
