<?xml version="1.0" encoding="UTF-8" standalone="no"?>
<!-- Created with Inkscape (http://www.inkscape.org/) -->

<svg
   xmlns:dc="http://purl.org/dc/elements/1.1/"
   xmlns:cc="http://creativecommons.org/ns#"
   xmlns:rdf="http://www.w3.org/1999/02/22-rdf-syntax-ns#"
   xmlns:svg="http://www.w3.org/2000/svg"
   xmlns="http://www.w3.org/2000/svg"
   xmlns:xlink="http://www.w3.org/1999/xlink"
   xmlns:sodipodi="http://sodipodi.sourceforge.net/DTD/sodipodi-0.dtd"
   xmlns:inkscape="http://www.inkscape.org/namespaces/inkscape"
   version="1.0"
   width="48"
   height="48"
   id="svg2"
   inkscape:version="0.48.2 r9819"
   sodipodi:docname="pingus.svg"
   inkscape:export-filename="/home/ingo/projects/pingus/git/pingus/data/images/svg/pingus-icon2.png"
   inkscape:export-xdpi="94.298172"
   inkscape:export-ydpi="94.298172">
  <metadata
     id="metadata19">
    <rdf:RDF>
      <cc:Work
         rdf:about="">
        <dc:format>image/svg+xml</dc:format>
        <dc:type
           rdf:resource="http://purl.org/dc/dcmitype/StillImage" />
        <dc:title />
      </cc:Work>
    </rdf:RDF>
  </metadata>
  <sodipodi:namedview
     pagecolor="#ffffff"
     bordercolor="#666666"
     borderopacity="1"
     objecttolerance="10"
     gridtolerance="10"
     guidetolerance="10"
     inkscape:pageopacity="0"
     inkscape:pageshadow="2"
     inkscape:window-width="1680"
     inkscape:window-height="977"
     id="namedview17"
     showgrid="false"
     showguides="true"
     inkscape:guide-bbox="true"
     inkscape:zoom="15.875"
     inkscape:cx="24"
     inkscape:cy="24"
     inkscape:window-x="1280"
     inkscape:window-y="25"
     inkscape:window-maximized="1"
     inkscape:current-layer="svg2" />
  <defs
     id="defs4">
    <linearGradient
       inkscape:collect="always"
       id="linearGradient3913">
      <stop
         style="stop-color:#ffffff;stop-opacity:1;"
         offset="0"
         id="stop3915" />
      <stop
         style="stop-color:#ffffff;stop-opacity:0;"
         offset="1"
         id="stop3917" />
    </linearGradient>
    <linearGradient
       id="linearGradient3878">
      <stop
         style="stop-color:#666666;stop-opacity:1;"
         offset="0"
         id="stop3880" />
      <stop
         style="stop-color:#ffffff;stop-opacity:1"
         offset="1"
         id="stop3882" />
    </linearGradient>
    <linearGradient
       inkscape:collect="always"
       id="linearGradient3861">
      <stop
         style="stop-color:#b3b3b3;stop-opacity:1;"
         offset="0"
         id="stop3863" />
      <stop
         style="stop-color:#b3b3b3;stop-opacity:0;"
         offset="1"
         id="stop3865" />
    </linearGradient>
    <radialGradient
       inkscape:collect="always"
       xlink:href="#linearGradient3861"
       id="radialGradient3867"
       cx="24.059607"
       cy="4.3273692"
       fx="24.059607"
       fy="4.3273692"
       r="19.610228"
       gradientUnits="userSpaceOnUse"
       gradientTransform="matrix(-3.0797891,0,0,-1.5238021,98.158117,8.6490236)" />
    <radialGradient
       inkscape:collect="always"
       xlink:href="#linearGradient3878"
       id="radialGradient3884"
       cx="23.680138"
       cy="45.230938"
       fx="23.680138"
       fy="45.230938"
       r="15.619493"
       gradientTransform="matrix(2.8138315,0,0,1.2956303,-43.402463,-10.597618)"
       gradientUnits="userSpaceOnUse" />
    <filter
       inkscape:collect="always"
       id="filter3902"
       x="-0.14497396"
       width="1.2899479"
       y="-0.11670142"
       height="1.2334028">
      <feGaussianBlur
         inkscape:collect="always"
         stdDeviation="1.9879061"
         id="feGaussianBlur3904" />
    </filter>
    <linearGradient
       inkscape:collect="always"
       xlink:href="#linearGradient3913"
       id="linearGradient3919"
       x1="19.595839"
       y1="-15.039496"
       x2="19.595839"
       y2="34.723194"
       gradientUnits="userSpaceOnUse"
       gradientTransform="matrix(0.6166197,0,0,0.66267942,8.3075078,5.5409081)" />
  </defs>
  <rect
     ry="10.08417"
     y="1.8740443"
     x="2.1580517"
     height="43.803112"
     width="43.803112"
     id="rect3839"
     style="fill:url(#radialGradient3867);fill-opacity:1;stroke:none" />
  <rect
     style="fill:#333333;fill-opacity:1;stroke:none"
     id="rect3837"
     width="47.676537"
     height="47.676537"
     x="0.22133948"
     y="-0.062668122"
     ry="10.975894" />
  <path
     sodipodi:type="inkscape:offset"
     inkscape:radius="2.2273884"
     inkscape:original="M 22.8125 3.96875 C 19.123552 4.268777 17.744891 7.0347682 17.53125 9.65625 C 17.31761 12.277738 19.003679 13.854839 17.90625 15.6875 C 15.42266 19.83492 11.350629 21.871661 9.1875 23.90625 C 7.6476326 25.354604 9.3368779 26.328499 11.5 26.09375 C 13.663109 25.858987 14.190877 25.86002 15.3125 25.46875 L 15.28125 26.65625 C 15.09465 29.056074 14.985568 31.09046 14.6875 32.75 L 13.5 32.21875 C 10.736922 30.801639 9.4105979 32.86844 11.4375 36.1875 L 12.0625 37.15625 C 11.627035 37.40192 11.146055 37.59455 10.5625 37.75 C 14.728511 41.506157 20.082196 44.349388 28.09375 40.90625 L 29.6875 40.375 C 30.644733 42.907234 35.501343 40.479279 39.03125 35.375 C 39.7367 34.354912 36.190382 31.108482 34.1875 31.65625 L 34.5 30.25 C 34.392397 28.820664 34.041426 27.46773 33.53125 26.28125 L 34.09375 25.09375 C 34.09375 25.09375 38.041499 25.096312 37 23.53125 C 35.958493 21.966195 27.683517 18.91087 27.84375 16.09375 C 27.84375 16.09375 27.661486 14.599531 28.03125 14.75 C 28.992647 15.141291 35.790899 13.517813 36.03125 12.1875 C 36.271587 10.857193 30.73219 9.59003 30.65625 9.59375 L 30.59375 9.34375 C 30.309743 5.2145606 26.501448 3.668723 22.8125 3.96875 z "
     style="fill:#00ffff;fill-opacity:1;stroke:none;filter:url(#filter3902)"
     id="path3872"
     d="m 22.625,1.75 c -2.373352,0.1930279 -4.311734,1.304222 -5.5,2.8125 -1.188266,1.508278 -1.679324,3.2721118 -1.8125,4.90625 -0.14829,1.8196 0.367975,3.26031 0.59375,4.09375 0.225775,0.83344 0.239478,0.72539 0.09375,0.96875 -2.097401,3.502511 -5.704824,5.267888 -8.34375,7.75 -0.6237554,0.586686 -1.1913023,1.362667 -1.28125,2.4375 -0.089948,1.074833 0.5242852,2.132308 1.1875,2.65625 1.3264296,1.047885 2.715655,1.097229 4.1875,0.9375 0.572305,-0.06211 0.734227,-0.140773 1.15625,-0.1875 -0.04319,0.568021 -0.11084,1.028912 -0.15625,1.53125 -0.403219,-0.07297 -0.821028,-0.135059 -1.25,-0.09375 -1.072857,0.103314 -2.2283454,0.796518 -2.78125,1.78125 -0.8844978,1.575305 -0.4570072,3.166676 0.3125,4.78125 a 2.2276111,2.2276111 0 0 0 0.03125,3.28125 c 2.227841,2.008665 4.907366,3.90495 8.25,4.78125 3.301065,0.865402 7.189802,0.629009 11.5,-1.1875 l 0,0.03125 0.3125,-0.09375 c 0.552602,0.359794 1.165686,0.612119 1.75,0.65625 1.299129,0.09812 2.446142,-0.291053 3.5625,-0.875 2.232716,-1.167894 4.494704,-3.253198 6.4375,-6.0625 0.493659,-0.713836 0.540962,-1.581617 0.4375,-2.15625 -0.103462,-0.574633 -0.335484,-0.998087 -0.5625,-1.375 -0.454032,-0.753825 -1.009295,-1.343225 -1.6875,-1.90625 -0.700792,-0.581776 -1.506839,-1.197914 -2.4375,-1.5625 -0.09676,-0.902615 -0.41186,-1.703551 -0.65625,-2.53125 0.228292,-0.03379 0.224326,-0.0069 0.46875,-0.0625 0.609347,-0.138684 1.285662,-0.236871 2.09375,-1.03125 0.404044,-0.397189 0.833079,-1.116243 0.875,-1.875 0.04192,-0.758757 -0.252615,-1.378086 -0.5625,-1.84375 -0.828859,-1.245512 -1.614928,-1.539093 -2.59375,-2.125 -0.978822,-0.585907 -2.088464,-1.188551 -3.125,-1.8125 -0.961704,-0.578903 -1.803712,-1.16118 -2.375,-1.65625 0.702472,-0.133296 1.407535,-0.256961 2.15625,-0.46875 1.010966,-0.285972 1.995522,-0.604221 2.875,-1.03125 0.439739,-0.213514 0.861224,-0.440592 1.28125,-0.78125 0.420026,-0.340658 0.969938,-0.812535 1.15625,-1.84375 C 38.387359,11.660471 38.001902,10.787107 37.625,10.3125 37.248098,9.8378934 36.872455,9.5777747 36.5,9.34375 35.755089,8.8757006 34.983315,8.5517111 34.21875,8.28125 33.533785,8.0389469 32.884066,7.8650426 32.34375,7.71875 31.789577,5.7285118 30.699079,4.0337304 29.125,3.09375 27.152271,1.9157108 24.839264,1.569911 22.625,1.75 z"
     transform="translate(-0.06299213,0.31496063)" />
  <path
     inkscape:connector-curvature="0"
     style="fill:url(#radialGradient3884);fill-opacity:1;fill-rule:evenodd;stroke:none;stroke-opacity:1"
     id="path3395"
     d="M 23.180066,4.0253574 C 21.53543,4.8846683 19.890795,5.7439791 18.246159,6.60329 c -0.07832,2.7081337 -0.156635,5.416267 -0.234952,8.124401 -1.42132,4.211226 -6.468061,7.104117 -9.7020914,10.656176 2.3464494,0.119548 4.6928984,0.239096 7.0393474,0.358644 -0.15663,2.21338 -0.31326,4.42676 -0.46989,6.64014 -1.461899,-0.05208 -2.923797,-0.104165 -4.385696,-0.156247 0.261052,2.187339 0.522105,4.374678 0.783157,6.562017 2.166743,1.249909 4.333485,2.499818 6.500228,3.749727 2.89769,-0.07812 5.795379,-0.156237 8.693069,-0.234356 0.730949,-0.416635 1.461898,-0.833269 2.192847,-1.249904 1.096424,0.364557 2.192848,0.729114 3.289272,1.093671 2.532217,-2.31754 5.064434,-4.635079 7.596651,-6.952619 -1.592426,-1.171791 -3.184851,-2.343581 -4.777277,-3.515372 -0.417685,-2.083179 -0.835369,-4.166358 -1.253054,-6.249537 1.044212,-0.364557 2.088423,-0.729115 3.132635,-1.093672 -0.313262,-0.650993 -0.626525,-1.301987 -0.939787,-1.95298 -2.453902,-1.614464 -4.907805,-3.228928 -7.361707,-4.843392 0.23495,-0.937432 0.469899,-1.874864 0.704849,-2.812296 1.775163,-0.338516 3.550326,-0.677033 5.325489,-1.015549 0.600422,-0.598916 1.200844,-1.197831 1.801266,-1.796747 C 34.24872,11.056084 32.316924,10.196773 30.385129,9.3374624 29.758602,8.0094344 29.132075,6.6814064 28.505548,5.3533784 26.730387,4.9107047 24.955227,4.4680311 23.180066,4.0253574 z"
     sodipodi:nodetypes="cccccccccccccccccccccccc"
     inkscape:export-filename="/home/ingo/projects/pingus/git/pingus/data/images/svg/path3190.png"
     inkscape:export-xdpi="94.298172"
     inkscape:export-ydpi="94.298172" />
  <path
     inkscape:connector-curvature="0"
     style="fill:none;stroke:#ff0000;stroke-width:10;stroke-linecap:butt;stroke-linejoin:miter;stroke-miterlimit:4;stroke-opacity:1;stroke-dasharray:none"
     id="path3178"
     d="" />
  <path
     inkscape:connector-curvature="0"
     style="fill:none;stroke:#666666;stroke-width:1.89999998000000003;stroke-linecap:round;stroke-linejoin:round;stroke-miterlimit:4;stroke-opacity:1;stroke-dasharray:none"
     id="path2396"
     d="m 17.945582,24.659279 c -1.121623,0.39127 -4.246142,1.486813 -6.409251,1.721576 -2.1631225,0.234749 -3.8632232,-0.74274 -2.3233563,-2.191094 2.1631293,-2.034589 6.2490173,-4.069163 8.7326073,-8.216583 1.097429,-1.832661 -0.614225,-3.40402 -0.400585,-6.0255087 0.213641,-2.6214818 1.59868,-5.4124553 5.287628,-5.7124823 3.688948,-0.300027 7.487197,1.2702873 7.771204,5.3994767"
     inkscape:export-filename="/home/ingo/projects/pingus/git/pingus/data/images/svg/path3190.png"
     inkscape:export-xdpi="94.298172"
     inkscape:export-ydpi="94.298172" />
  <path
     inkscape:connector-curvature="0"
     style="fill:none;stroke:#666666;stroke-width:1.89999998000000003;stroke-linecap:round;stroke-linejoin:round;stroke-miterlimit:4;stroke-opacity:1;stroke-dasharray:none"
     id="path3168"
     d="m 15.301758,26.928617 c -0.480688,6.182015 -0.320454,9.938179 -4.726823,11.111966 4.166011,3.756157 9.533756,6.57327 17.54531,3.130132"
     inkscape:export-filename="/home/ingo/projects/pingus/git/pingus/data/images/svg/path3190.png"
     inkscape:export-xdpi="94.298172"
     inkscape:export-ydpi="94.298172" />
  <path
     inkscape:connector-curvature="0"
     style="fill:none;stroke:#666666;stroke-width:1.89999998000000003;stroke-linecap:round;stroke-linejoin:round;stroke-miterlimit:4;stroke-opacity:1;stroke-dasharray:none"
     id="path3172"
     d="m 27.879901,16.364433 c -0.160233,2.81712 8.091658,5.869003 9.133165,7.434058 1.041499,1.565063 -2.884162,1.252058 -2.884162,1.252058"
     inkscape:export-filename="/home/ingo/projects/pingus/git/pingus/data/images/svg/path3190.png"
     inkscape:export-xdpi="94.298172"
     inkscape:export-ydpi="94.298172" />
  <path
     inkscape:connector-curvature="0"
     style="fill:#666666;fill-opacity:1;fill-rule:nonzero;stroke:none;stroke-opacity:1"
     id="path3180"
     d="m 28.718903,9.4101628 c 3.76e-4,1.1055872 -0.771147,2.0020662 -1.722978,2.0020662 -0.951832,0 -1.723343,-0.896479 -1.722979,-2.0020662 -3.76e-4,-1.1055875 0.771147,-2.0020656 1.722979,-2.0020656 0.951831,0 1.723342,0.8964781 1.722978,2.0020656 z"
     inkscape:export-filename="/home/ingo/projects/pingus/git/pingus/data/images/svg/path3190.png"
     inkscape:export-xdpi="94.298172"
     inkscape:export-ydpi="94.298172" />
  <path
     inkscape:connector-curvature="0"
     style="fill:none;stroke:#666666;stroke-width:1.89999998000000003;stroke-linecap:round;stroke-linejoin:round;stroke-miterlimit:4;stroke-opacity:1;stroke-dasharray:none"
     id="path3182"
     d="m 30.683946,9.8694196 c -1.526374,0.074554 -2.804045,1.2520504 -3.605193,2.7388634 -0.801169,1.486813 0.591611,2.275367 0.961375,2.425836 0.961397,0.391291 7.771211,-1.252029 8.011562,-2.582342 0.240337,-1.330307 -5.291807,-2.5860735 -5.367744,-2.5823574 z"
     inkscape:export-filename="/home/ingo/projects/pingus/git/pingus/data/images/svg/path3190.png"
     inkscape:export-xdpi="94.298172"
     inkscape:export-ydpi="94.298172" />
  <path
     inkscape:connector-curvature="0"
     style="fill:none;stroke:#666666;stroke-width:1.89999998000000003;stroke-linecap:round;stroke-linejoin:round;stroke-miterlimit:4;stroke-opacity:1;stroke-dasharray:none"
     id="path3186"
     d="m 29.642446,41.248965 c 3.044381,2.42585 9.053054,-4.851702 9.453632,-6.025509 0.400578,-1.173787 -2.884161,-3.8344 -4.887043,-3.286632 -2.002895,0.547776 -5.848446,8.13834 -4.566589,9.312141 z"
     inkscape:export-filename="/home/ingo/projects/pingus/git/pingus/data/images/svg/path3190.png"
     inkscape:export-xdpi="94.298172"
     inkscape:export-ydpi="94.298172" />
  <path
     inkscape:connector-curvature="0"
     style="fill:none;stroke:#666666;stroke-width:1.89999998000000003;stroke-linecap:round;stroke-linejoin:round;stroke-miterlimit:4;stroke-opacity:1;stroke-dasharray:none"
     id="path3188"
     d="M 11.456214,36.475513 C 9.4293112,33.156453 10.776142,31.067489 13.53922,32.4846"
     inkscape:export-filename="/home/ingo/projects/pingus/git/pingus/data/images/svg/path3190.png"
     inkscape:export-xdpi="94.298172"
     inkscape:export-ydpi="94.298172" />
  <path
     inkscape:connector-curvature="0"
     style="fill:none;stroke:#666666;stroke-width:1.89999998000000003;stroke-linecap:round;stroke-linejoin:round;stroke-miterlimit:4;stroke-opacity:1;stroke-dasharray:none"
     id="path3190"
     d="m 27.639551,40.075164 c -2.990441,-0.834838 -4.202293,-4.568951 -4.96716,-8.764365 -0.786539,-4.314303 1.201726,-9.390383 4.486472,-9.781652 3.284739,-0.391262 6.970041,3.677908 7.370633,8.999121"
     inkscape:export-xdpi="94.298172"
     inkscape:export-ydpi="94.298172" />
  <path
     style="fill:url(#linearGradient3919);fill-opacity:1;fill-rule:evenodd;stroke:none"
     d="M 11.1875 -0.0625 C 5.1068547 -0.0625 0.21875 4.8256047 0.21875 10.90625 L 0.21875 16.15625 C 3.980273 22.100781 13.167327 26.3125 23.90625 26.3125 C 34.984088 26.3125 44.383382 21.837027 47.90625 15.59375 L 47.90625 10.90625 C 47.90625 4.8256047 43.018145 -0.0625 36.9375 -0.0625 L 11.1875 -0.0625 z "
     id="path3001" />
  <path
     style="fill:#1a1a1a;fill-opacity:1;stroke:none"
     d="m 11.1875,-0.0625 c -6.080645,0 -10.96875,4.8881047 -10.96875,10.96875 l 0,25.71875 c 0,6.080645 4.888105,11 10.96875,11 l 25.75,0 c 6.080645,0 10.96875,-4.919355 10.96875,-11 l 0,-25.71875 c 0,-6.0806453 -4.888105,-10.96875 -10.96875,-10.96875 l -25.75,0 z m 1.0625,1.9375 23.625,0 c 5.58663,0 10.09375,4.5071196 10.09375,10.09375 l 0,23.625 c 0,5.58663 -4.50712,10.09375 -10.09375,10.09375 l -23.625,0 c -5.58663,0 -10.09375,-4.50712 -10.09375,-10.09375 l 0,-23.625 C 2.15625,6.3821196 6.66337,1.875 12.25,1.875 z"
     id="rect3906"
     inkscape:connector-curvature="0" />
</svg>
